<svg width="656" height="516" viewBox="0 0 656 516" fill="none" xmlns="http://www.w3.org/2000/svg">
<path d="M565.667 257.713C565.667 115.408 450.231 0.0463562 307.834 0.0463562C165.436 0.0463562 50 115.408 50 257.713C50 400.018 165.436 515.379 307.834 515.379C450.231 515.379 565.667 400.018 565.667 257.713Z" fill="#7B4AE2" fill-opacity="0.2"/>
<g filter="url(#filter0_d_21_4106)">
<circle cx="570.143" cy="279.11" r="35.8102" fill="#090E16"/>
</g>
<g clip-path="url(#clip0_21_4106)">
<path fill-rule="evenodd" clip-rule="evenodd" d="M585.251 261.205H555.036C553.491 261.205 552.238 262.458 552.238 264.003V294.218C552.238 295.763 553.491 297.015 555.036 297.015H585.251C586.796 297.015 588.049 295.763 588.049 294.218V264.003C588.049 262.458 586.796 261.205 585.251 261.205ZM573.293 293.112V289.248C573.994 289.836 574.755 290.277 575.577 290.57C576.399 290.864 577.229 291.011 578.066 291.011C578.558 291.011 578.987 290.967 579.353 290.878C579.72 290.79 580.026 290.667 580.272 290.51C580.517 290.353 580.701 290.168 580.821 289.955C580.942 289.741 581.003 289.51 581.003 289.26C581.003 288.922 580.906 288.621 580.713 288.355C580.519 288.089 580.256 287.844 579.921 287.618C579.587 287.393 579.19 287.176 578.731 286.967C578.272 286.757 577.776 286.544 577.245 286.327C575.891 285.763 574.882 285.075 574.218 284.262C573.553 283.449 573.221 282.467 573.221 281.316C573.221 280.415 573.402 279.64 573.765 278.992C574.127 278.344 574.621 277.811 575.245 277.392C575.869 276.974 576.592 276.666 577.414 276.469C578.236 276.271 579.106 276.173 580.024 276.173C580.926 276.173 581.726 276.227 582.423 276.336C583.119 276.444 583.762 276.611 584.35 276.837V280.447C584.06 280.246 583.744 280.068 583.401 279.916C583.059 279.763 582.706 279.636 582.344 279.535C581.981 279.434 581.621 279.36 581.262 279.312C580.904 279.264 580.564 279.239 580.241 279.239C579.798 279.239 579.396 279.282 579.033 279.366C578.671 279.451 578.364 279.569 578.115 279.722C577.865 279.875 577.672 280.058 577.535 280.272C577.398 280.485 577.329 280.724 577.329 280.99C577.329 281.28 577.406 281.539 577.559 281.769C577.712 281.998 577.929 282.216 578.211 282.421C578.493 282.626 578.836 282.827 579.238 283.024C579.641 283.222 580.096 283.425 580.604 283.634C581.297 283.924 581.919 284.232 582.471 284.558C583.023 284.884 583.496 285.252 583.891 285.663C584.285 286.073 584.587 286.542 584.797 287.069C585.006 287.596 585.111 288.21 585.111 288.91C585.111 289.876 584.928 290.687 584.561 291.343C584.195 291.999 583.697 292.53 583.069 292.937C582.441 293.343 581.71 293.635 580.876 293.812C580.042 293.989 579.162 294.078 578.236 294.078C577.285 294.078 576.381 293.997 575.523 293.836C574.665 293.675 573.922 293.434 573.293 293.112ZM571.822 279.634H566.854V293.798H562.918V279.634H557.974V276.452H571.822V279.634Z" fill="#7B4AE2" fill-opacity="0.5"/>
</g>
<g filter="url(#filter1_d_21_4106)">
<circle cx="85.8102" cy="187.794" r="35.8102" fill="#090E16"/>
</g>
<path d="M99.2074 181.496C98.7899 181.352 98.3572 181.216 97.9117 181.088C97.9849 180.789 98.0521 180.494 98.1119 180.204C99.0927 175.443 98.4514 171.608 96.2617 170.345C94.1619 169.134 90.728 170.396 87.26 173.415C86.9265 173.705 86.592 174.012 86.2577 174.334C86.035 174.121 85.8126 173.915 85.5908 173.718C81.9562 170.491 78.313 169.131 76.1254 170.397C74.0277 171.612 73.4065 175.217 74.2893 179.729C74.3746 180.165 74.4742 180.61 74.5869 181.063C74.0713 181.209 73.5735 181.365 73.0973 181.531C68.836 183.017 66.1146 185.345 66.1146 187.76C66.1146 190.255 69.036 192.757 73.4745 194.274C73.8247 194.393 74.1882 194.507 74.5627 194.614C74.4411 195.103 74.3354 195.583 74.2466 196.051C73.4048 200.484 74.0622 204.005 76.1543 205.211C78.3153 206.458 81.942 205.177 85.4735 202.09C85.7526 201.846 86.0327 201.587 86.3133 201.316C86.6771 201.666 87.0402 201.997 87.4014 202.308C90.8221 205.252 94.2006 206.441 96.2907 205.231C98.4496 203.981 99.1511 200.199 98.2403 195.598C98.1707 195.246 98.0898 194.887 97.9988 194.522C98.2535 194.447 98.5036 194.369 98.7474 194.288C103.362 192.759 106.364 190.288 106.364 187.76C106.364 185.336 103.554 182.992 99.2074 181.496ZM98.2066 192.656C97.9865 192.729 97.7607 192.799 97.5306 192.868C97.0212 191.255 96.3337 189.54 95.4924 187.769C96.2953 186.039 96.9562 184.346 97.4513 182.744C97.863 182.863 98.2626 182.989 98.6477 183.122C102.372 184.404 104.644 186.3 104.644 187.76C104.644 189.316 102.191 191.336 98.2066 192.656ZM96.5535 195.932C96.9563 197.966 97.0138 199.806 96.747 201.244C96.5073 202.536 96.0252 203.398 95.4292 203.743C94.1607 204.477 91.4482 203.522 88.5228 201.005C88.1874 200.716 87.8496 200.408 87.5108 200.082C88.6449 198.842 89.7783 197.4 90.8846 195.798C92.8303 195.626 94.6686 195.344 96.3357 194.958C96.4178 195.289 96.4907 195.614 96.5535 195.932ZM79.8364 203.616C78.5971 204.053 77.6101 204.066 77.0135 203.722C75.7439 202.99 75.2161 200.163 75.936 196.371C76.0185 195.937 76.1166 195.491 76.2298 195.035C77.8785 195.4 79.7034 195.662 81.6538 195.82C82.7675 197.387 83.9337 198.828 85.1089 200.089C84.8521 200.337 84.5963 200.573 84.342 200.795C82.7804 202.16 81.2155 203.129 79.8364 203.616ZM74.0305 192.647C72.068 191.976 70.4472 191.104 69.3362 190.153C68.338 189.298 67.8339 188.449 67.8339 187.76C67.8339 186.295 70.019 184.425 73.6632 183.155C74.1054 183.001 74.5683 182.855 75.0487 182.719C75.5523 184.357 76.213 186.07 77.0103 187.802C76.2027 189.56 75.5326 191.3 75.024 192.958C74.6816 192.859 74.3498 192.756 74.0305 192.647ZM75.9767 179.399C75.2203 175.533 75.7227 172.617 76.9868 171.886C78.3333 171.106 81.3109 172.217 84.4491 175.004C84.6497 175.182 84.8511 175.369 85.0531 175.561C83.8836 176.817 82.7281 178.247 81.6243 179.804C79.7314 179.98 77.9194 180.262 76.2534 180.639C76.1487 180.218 76.0559 179.804 75.9767 179.399ZM93.3383 183.686C92.9401 182.998 92.5312 182.327 92.1144 181.673C93.3986 181.836 94.629 182.051 95.7844 182.315C95.4375 183.427 95.0052 184.589 94.4962 185.781C94.1311 185.087 93.745 184.389 93.3383 183.686ZM86.2583 176.79C87.0514 177.649 87.8456 178.609 88.6268 179.65C87.8396 179.612 87.0427 179.593 86.2391 179.593C85.4432 179.593 84.6521 179.612 83.8697 179.648C84.6517 178.617 85.4528 177.659 86.2583 176.79ZM79.1329 183.698C78.7351 184.388 78.3561 185.083 77.9968 185.779C77.496 184.592 77.0677 183.424 76.7178 182.297C77.8662 182.04 79.0907 181.83 80.3668 181.67C79.9441 182.33 79.5318 183.006 79.1329 183.698V183.698ZM80.4035 193.973C79.0852 193.826 77.8422 193.627 76.6941 193.377C77.0496 192.229 77.4874 191.036 77.9987 189.823C78.359 190.519 78.7395 191.215 79.1397 191.906H79.1398C79.5475 192.61 79.9699 193.3 80.4035 193.973ZM86.3059 198.852C85.491 197.972 84.6781 197 83.8842 195.953C84.6549 195.984 85.4406 195.999 86.2391 195.999C87.0595 195.999 87.8705 195.981 88.6687 195.945C87.885 197.01 87.0936 197.984 86.3059 198.852ZM94.5126 189.761C95.0506 190.988 95.5041 192.174 95.8642 193.302C94.6972 193.568 93.4372 193.783 92.1097 193.942C92.5275 193.28 92.9399 192.597 93.3452 191.894C93.7552 191.183 94.1445 190.471 94.5126 189.761ZM91.8558 191.035C91.2267 192.126 90.5807 193.167 89.925 194.15C88.7306 194.236 87.4967 194.28 86.2391 194.28C84.9866 194.28 83.7682 194.241 82.595 194.165C81.9128 193.169 81.2529 192.124 80.6277 191.044H80.6278C80.0043 189.968 79.4305 188.881 78.9105 187.802C79.4303 186.719 80.0027 185.632 80.6226 184.557L80.6225 184.557C81.244 183.479 81.8982 182.44 82.5741 181.45C83.7711 181.36 84.9986 181.312 86.239 181.312H86.2391C87.4852 181.312 88.7142 181.36 89.9109 181.451C90.5764 182.434 91.2262 183.47 91.8502 184.548C92.4813 185.638 93.061 186.718 93.5853 187.777C93.0626 188.855 92.4841 189.945 91.8558 191.035ZM95.4028 171.834C96.7506 172.612 97.2748 175.746 96.4279 179.857C96.3739 180.119 96.3131 180.386 96.247 180.657C94.5772 180.272 92.7639 179.985 90.8654 179.807C89.7595 178.232 88.6134 176.8 87.4631 175.561C87.7723 175.263 88.0812 174.979 88.3888 174.712C91.3602 172.126 94.1374 171.105 95.4028 171.834ZM86.2391 184.166C88.2241 184.166 89.8332 185.775 89.8332 187.76C89.8332 189.745 88.2241 191.354 86.2391 191.354C84.2542 191.354 82.645 189.745 82.645 187.76C82.645 185.775 84.2542 184.166 86.2391 184.166Z" fill="#7B4AE2" fill-opacity="0.5"/>
<g filter="url(#filter2_d_21_4106)">
<circle cx="85.8102" cy="416.98" r="35.8102" fill="#090E16"/>
</g>
<g clip-path="url(#clip1_21_4106)">
<path fill-rule="evenodd" clip-rule="evenodd" d="M79.8885 399.074C76.5939 399.074 73.9201 401.748 73.9201 405.043C73.9201 408.337 76.5939 411.011 79.8885 411.011C76.5939 411.011 73.9201 413.685 73.9201 416.98C73.9201 420.274 76.5939 422.948 79.8885 422.948C76.5939 422.948 73.9201 425.622 73.9201 428.916C73.9201 432.211 76.5939 434.885 79.8885 434.885C83.183 434.885 85.8568 432.211 85.8568 428.916L85.8568 416.98C85.8568 420.274 88.5307 422.948 91.8252 422.948C95.1198 422.948 97.7936 420.274 97.7936 416.98C97.7936 413.685 95.1198 411.011 91.8252 411.011C95.1198 411.011 97.7936 408.337 97.7936 405.043C97.7936 401.748 95.1198 399.074 91.8252 399.074H79.8885ZM91.8252 411.011H85.8568L85.8568 416.98C85.8568 413.685 88.5307 411.011 91.8252 411.011Z" fill="#7B4AE2" fill-opacity="0.5"/>
</g>
<defs>
<filter id="filter0_d_21_4106" x="484.333" y="197.3" width="171.62" height="171.62" filterUnits="userSpaceOnUse" color-interpolation-filters="sRGB">
<feFlood flood-opacity="0" result="BackgroundImageFix"/>
<feColorMatrix in="SourceAlpha" type="matrix" values="0 0 0 0 0 0 0 0 0 0 0 0 0 0 0 0 0 0 127 0" result="hardAlpha"/>
<feOffset dy="4"/>
<feGaussianBlur stdDeviation="25"/>
<feComposite in2="hardAlpha" operator="out"/>
<feColorMatrix type="matrix" values="0 0 0 0 0 0 0 0 0 0 0 0 0 0 0 0 0 0 0.5 0"/>
<feBlend mode="normal" in2="BackgroundImageFix" result="effect1_dropShadow_21_4106"/>
<feBlend mode="normal" in="SourceGraphic" in2="effect1_dropShadow_21_4106" result="shape"/>
</filter>
<filter id="filter1_d_21_4106" x="0" y="105.984" width="171.62" height="171.62" filterUnits="userSpaceOnUse" color-interpolation-filters="sRGB">
<feFlood flood-opacity="0" result="BackgroundImageFix"/>
<feColorMatrix in="SourceAlpha" type="matrix" values="0 0 0 0 0 0 0 0 0 0 0 0 0 0 0 0 0 0 127 0" result="hardAlpha"/>
<feOffset dy="4"/>
<feGaussianBlur stdDeviation="25"/>
<feComposite in2="hardAlpha" operator="out"/>
<feColorMatrix type="matrix" values="0 0 0 0 0 0 0 0 0 0 0 0 0 0 0 0 0 0 0.5 0"/>
<feBlend mode="normal" in2="BackgroundImageFix" result="effect1_dropShadow_21_4106"/>
<feBlend mode="normal" in="SourceGraphic" in2="effect1_dropShadow_21_4106" result="shape"/>
</filter>
<filter id="filter2_d_21_4106" x="0" y="335.169" width="171.62" height="171.62" filterUnits="userSpaceOnUse" color-interpolation-filters="sRGB">
<feFlood flood-opacity="0" result="BackgroundImageFix"/>
<feColorMatrix in="SourceAlpha" type="matrix" values="0 0 0 0 0 0 0 0 0 0 0 0 0 0 0 0 0 0 127 0" result="hardAlpha"/>
<feOffset dy="4"/>
<feGaussianBlur stdDeviation="25"/>
<feComposite in2="hardAlpha" operator="out"/>
<feColorMatrix type="matrix" values="0 0 0 0 0 0 0 0 0 0 0 0 0 0 0 0 0 0 0.5 0"/>
<feBlend mode="normal" in2="BackgroundImageFix" result="effect1_dropShadow_21_4106"/>
<feBlend mode="normal" in="SourceGraphic" in2="effect1_dropShadow_21_4106" result="shape"/>
</filter>
<clipPath id="clip0_21_4106">
<rect width="35.8102" height="35.8102" fill="white" transform="translate(552.238 261.205)"/>
</clipPath>
<clipPath id="clip1_21_4106">
<rect width="35.8102" height="35.8102" fill="white" transform="translate(67.9051 399.074)"/>
</clipPath>
</defs>
</svg>
